<svg width="500" height="500" viewBox="0 0 500 500" fill="none" xmlns="http://www.w3.org/2000/svg">
<rect width="500" height="500" rx="88" fill="#18B83D"/>
<path d="M64.3892 373V125.727H222.798V163.277H109.183V230.408H211.932V267.957H109.183V373H64.3892ZM263.608 373V125.727H356.335C375.331 125.727 391.269 129.027 404.148 135.628C417.107 142.228 426.887 151.485 433.487 163.398C440.168 175.23 443.509 189.035 443.509 204.811C443.509 220.668 440.128 234.432 433.366 246.104C426.686 257.695 416.825 266.67 403.786 273.028C390.746 279.307 374.728 282.446 355.732 282.446H289.688V245.259H349.695C360.803 245.259 369.898 243.729 376.982 240.67C384.065 237.531 389.297 232.983 392.678 227.027C396.139 220.99 397.869 213.585 397.869 204.811C397.869 196.037 396.139 188.552 392.678 182.354C389.216 176.075 383.944 171.326 376.861 168.107C369.777 164.806 360.642 163.156 349.453 163.156H308.402V373H263.608ZM391.349 260.955L452.564 373H402.578L342.45 260.955H391.349Z" fill="black"/>
</svg>
